<svg width="64" height="64" viewBox="0 0 64 64" fill="none" xmlns="http://www.w3.org/2000/svg">
<g clip-path="url(#clip0_213_184)">
<mask id="mask0_213_184" style="mask-type:luminance" maskUnits="userSpaceOnUse" x="0" y="0" width="64" height="64">
<path d="M64 0H0V64H64V0Z" fill="white"/>
</mask>
<g mask="url(#mask0_213_184)">
<path d="M46.9336 7.99188L39.6429 14.6003L54.7135 31.2266L62.0041 24.6182L46.9336 7.99188Z" fill="#FFC097"/>
<path d="M41.73 50.1702C41.92 50.1702 42.1 50.1502 42.3 50.1302C44.35 49.9402 46.47 49.1702 48.6 47.7002C48.6 47.7002 48.61 47.7002 48.62 47.6902C50.84 46.1502 53.08 43.8502 55.29 40.6602C57.91 36.8602 57.84 32.6902 56.94 29.2202C56.93 29.1502 56.91 29.0802 56.88 29.0102C55.74 24.7802 53.42 21.6502 53.42 21.6502C49.18 16.4502 45.3 13.7202 41.79 12.6602C37.39 11.3302 33.57 12.6102 30.32 14.9502C27.15 17.2302 24.53 20.5202 22.48 23.3302C21.71 25.4202 21.49 27.7802 19.39 30.6802C19.41 33.5502 20.87 36.2002 22.92 38.6002C22.98 38.6802 23.05 38.7502 23.12 38.8302C23.86 39.6902 24.69 40.5002 25.55 41.2802C27.14 42.7302 28.86 44.0502 30.46 45.2202C30.85 45.5102 31.23 45.7802 31.6 46.0502C32.27 46.5302 32.9 46.9802 33.48 47.4002C34.05 47.8102 34.63 48.1902 35.22 48.5202C36.74 49.3502 38.33 49.9002 39.98 50.0902C40.56 50.1602 41.15 50.1802 41.75 50.1502L41.73 50.1702Z" fill="#FFC097"/>
<path d="M7.74999 56.0001C7.84999 56.0001 7.94999 56.0001 8.03999 56.0001C9.23999 56.0201 10.42 55.7401 11.38 55.0901C13.31 53.7801 18.57 48.5201 23.47 43.4401C23.63 43.2701 23.79 43.1101 23.94 42.9501C24.34 42.5301 24.74 42.1201 25.13 41.7101C25.27 41.5701 25.4 41.4301 25.53 41.2901C27.7 39.0301 29.69 36.9301 31.12 35.4001C32.57 33.8601 33.47 32.8901 33.47 32.8901L28.49 19.7101C28.49 19.7101 24.45 24.6901 19.37 30.6801C18.82 31.3301 18.26 31.9901 17.7 32.6501C17.59 32.7701 17.49 32.8901 17.39 33.0101C17.3 33.1101 17.21 33.2101 17.13 33.3201C15.78 34.8901 14.4 36.4801 13.03 38.0401C12.77 38.3301 12.57 38.5601 12.43 38.7101C12.23 38.9301 12.04 39.1601 11.84 39.3801C11.53 39.7201 11.25 40.0501 10.97 40.3601C9.51999 41.9701 8.11999 43.5101 6.79999 44.9001C6.79999 44.9001 6.79665 44.9034 6.78999 44.9101C5.73999 46.0201 4.75999 47.0201 3.85999 47.8901C1.81999 49.8701 1.63999 51.7201 2.42999 53.1501C2.42999 53.1601 2.43999 53.1701 2.44999 53.1701C3.35999 54.8001 5.54999 55.8801 7.73999 55.9901L7.74999 56.0001Z" fill="#FFC097"/>
<path d="M23.5399 43.6802C23.5099 43.6002 23.4899 43.5202 23.4699 43.4402C23.0599 42.0402 22.8899 40.6102 23.0299 39.2802C23.0499 39.1302 23.0699 38.9802 23.0999 38.8402C23.4599 36.6402 24.7399 34.7702 27.2799 33.8602C28.5599 33.4002 29.9099 34.0802 31.1299 35.4002C31.9399 36.2802 32.6999 37.4302 33.3399 38.7202C34.9099 41.8802 35.8099 45.8502 35.1999 48.5302C34.9899 49.4502 34.6099 50.2102 34.0099 50.7402C33.9099 50.8402 33.8099 50.9102 33.6999 50.9902C33.4099 51.1902 33.0899 51.3302 32.7099 51.4302C32.6199 51.4502 32.5399 51.4702 32.4499 51.4802C30.4299 51.8702 28.4099 50.8702 26.7499 49.1602L23.5499 43.6802H23.5399Z" fill="#FFC097"/>
<path d="M45.8399 52.9402C39.1499 54.6202 33.2799 39.4502 41.9199 36.3602C46.8999 34.5802 51.8799 51.4302 45.8399 52.9402Z" fill="#FFC097"/>
<path d="M39.62 53.8701C32.93 55.5501 27.06 40.3801 35.7 37.2901C40.68 35.5101 45.66 52.3601 39.62 53.8701Z" fill="#FFC097"/>
<path d="M54.01 23.7501C54.01 23.7501 61.86 33.8701 55.28 40.6501C55.28 40.6501 49.4 46.6801 48.48 47.2701C48.48 47.2701 49.68 51.0801 47.86 52.2101C43.65 54.8101 41.55 50.8801 40.25 46.2301" stroke="#491D19" stroke-width="2" stroke-linejoin="round"/>
<path d="M22.6 36.7401C22.6 36.7401 24.08 48.4301 28.86 51.1701C31.87 52.8901 34.05 50.3801 34.05 50.3801" stroke="#491D19" stroke-width="2" stroke-linejoin="round"/>
<path d="M29.67 43.6001C29.67 43.6001 33.36 52.3901 38 53.5801C42.44 54.7201 42.61 51.4401 42.61 51.4401" stroke="#491D19" stroke-width="2" stroke-linejoin="round"/>
<path d="M42.12 12.7701C41.99 12.7501 41.86 12.7401 41.72 12.7201C39.43 12.4801 34.87 12.3701 30.32 14.9501C29.01 15.6801 24.31 18.3501 22.48 23.3301C21.71 25.4201 21.49 27.7801 19.39 30.6801C19.23 30.9001 19.15 31.0001 17.72 32.6501C17.63 32.7601 17.52 32.8801 17.41 33.0101C17.32 33.1101 17.23 33.2101 17.15 33.3201C15.1 35.6801 13.8 37.1801 13.05 38.0401C12.79 38.3301 12.59 38.5601 12.45 38.7101C12.24 38.9401 12.05 39.1601 11.86 39.3801C11.55 39.7201 11.27 40.0501 10.99 40.3601C8.70003 42.9501 7.46003 44.3301 6.82003 44.9001H6.81003C5.47003 46.1101 4.74003 46.6001 3.88003 47.8901C3.08003 49.0901 1.71003 51.1701 2.44003 53.1201C2.44003 53.1301 2.45003 53.1401 2.44003 53.1501C2.44003 53.1601 2.45003 53.1701 2.46003 53.1701C3.29003 55.2701 6.12003 55.9501 7.75003 55.9901C7.85003 55.9901 7.95003 55.9901 8.04003 55.9901C9.47003 55.9601 10.63 55.4701 11.38 55.0801C15.52 52.9501 20.85 46.9101 23.54 43.6801C23.7 43.4901 23.85 43.3001 24 43.1301" stroke="#491D19" stroke-width="2" stroke-linejoin="round"/>
</g>
</g>
<defs>
<clipPath id="clip0_213_184">
<rect width="64" height="64" fill="white"/>
</clipPath>
</defs>
</svg>
