<svg width="64" height="64" viewBox="0 0 64 64" fill="none" xmlns="http://www.w3.org/2000/svg">
<g clip-path="url(#clip0_213_183)">
<mask id="mask0_213_183" style="mask-type:luminance" maskUnits="userSpaceOnUse" x="0" y="0" width="64" height="64">
<path d="M64 0H0V64H64V0Z" fill="white"/>
</mask>
<g mask="url(#mask0_213_183)">
<path d="M41.45 62L34.2 54.88L50.75 38.63L58 45.75L41.45 62Z" fill="#FFC097"/>
<path d="M13.8 42.55C13.82 42.74 13.84 42.93 13.87 43.13C14.17 45.22 15.08 47.34 16.73 49.45C16.73 49.45 16.73 49.46 16.74 49.47C18.45 51.66 20.96 53.84 24.41 55.94C28.5 58.43 32.84 58.15 36.41 57.06C36.48 57.04 36.56 57.02 36.62 56.99C40.97 55.62 44.11 53.08 44.11 53.08C49.31 48.48 51.96 44.38 52.89 40.74C54.05 36.17 52.52 32.33 49.92 29.13C47.38 26 43.82 23.49 40.79 21.53C38.58 20.85 36.11 20.74 32.98 18.74C30 18.91 27.31 20.52 24.91 22.75C24.83 22.82 24.76 22.89 24.69 22.96C23.84 23.76 23.03 24.65 22.26 25.57C20.83 27.27 19.54 29.09 18.4 30.79C18.12 31.2 17.85 31.61 17.59 31.99C17.13 32.7 16.68 33.37 16.28 33.98C15.88 34.58 15.52 35.19 15.21 35.82C14.42 37.41 13.93 39.07 13.82 40.76C13.78 41.35 13.79 41.96 13.84 42.57L13.8 42.55Z" fill="#FFC097"/>
<path d="M6 8.10003C6 8.20003 6 8.30003 6.01 8.40003C6.05 9.63003 6.4 10.82 7.13 11.77C8.59 13.67 14.34 18.79 19.88 23.55C20.06 23.7 20.24 23.86 20.41 24.01C20.86 24.4 21.31 24.79 21.76 25.17C21.91 25.3 22.07 25.43 22.22 25.56C24.69 27.67 26.98 29.59 28.64 30.98C30.32 32.39 31.38 33.26 31.38 33.26L44.86 27.51C44.86 27.51 39.47 23.63 32.96 18.73C32.26 18.2 31.55 17.66 30.83 17.12C30.7 17.02 30.57 16.92 30.44 16.82C30.33 16.73 30.22 16.65 30.11 16.57C28.41 15.27 26.68 13.94 24.98 12.61C24.66 12.36 24.42 12.17 24.25 12.03C24.01 11.84 23.76 11.65 23.52 11.46C23.15 11.16 22.79 10.89 22.46 10.62C20.71 9.22003 19.03 7.86003 17.52 6.59003C17.52 6.59003 17.5167 6.58669 17.51 6.58003C16.3 5.56003 15.2 4.61003 14.26 3.73003C12.09 1.75003 10.16 1.65003 8.71 2.53003C8.7 2.53003 8.69 2.54003 8.69 2.55003C7.04 3.56003 6.02 5.86003 6.02 8.10003H6Z" fill="#FFC097"/>
<path d="M19.63 23.64C19.71 23.61 19.8 23.58 19.88 23.55C21.31 23.06 22.8 22.82 24.19 22.89C24.35 22.9 24.5 22.92 24.65 22.94C26.96 23.2 28.97 24.41 30.05 26.96C30.59 28.24 29.95 29.66 28.64 30.97C27.77 31.84 26.6 32.67 25.29 33.4C22.08 35.17 17.98 36.29 15.17 35.79C14.2 35.62 13.39 35.27 12.81 34.68C12.71 34.58 12.62 34.48 12.54 34.37C12.32 34.08 12.15 33.76 12.03 33.38C12 33.29 11.98 33.2 11.96 33.11C11.45 31.07 12.39 28.95 14.09 27.16L19.63 23.61V23.64Z" fill="#FFC097"/>
<path d="M11.1299 46.9C9.03995 40.14 24.5499 33.39 28.2099 42.06C30.32 47.06 13.0199 52.99 11.1299 46.9Z" fill="#FFC097"/>
<path d="M9.84003 40.5801C7.75003 33.8201 23.26 27.0701 26.92 35.7401C29.03 40.7401 11.73 46.6701 9.84003 40.5801Z" fill="#FFC097"/>
<path d="M41.95 53.79C41.95 53.79 31.8 62.32 24.41 55.94C24.41 55.94 17.83 50.23 17.16 49.32C17.16 49.32 13.25 50.74 11.98 48.93C9.05999 44.76 13.04 42.42 17.82 40.85" stroke="#491D19" stroke-width="2" stroke-linejoin="round"/>
<path d="M26.82 22.3201C26.82 22.3201 14.72 24.4201 12.11 29.4401C10.47 32.6001 13.2 34.7101 13.2 34.7101" stroke="#491D19" stroke-width="2" stroke-linejoin="round"/>
<path d="M20.03 29.9C20.03 29.9 11.06 34.12 10.06 38.92C9.09997 43.52 12.52 43.52 12.52 43.52" stroke="#491D19" stroke-width="2" stroke-linejoin="round"/>
<path d="M52.7901 41.09C52.8001 40.96 52.81 40.82 52.82 40.67C52.95 38.32 52.83 33.65 49.92 29.13C49.09 27.82 46.0701 23.15 40.7901 21.53C38.5801 20.85 36.1101 20.74 32.9801 18.74C32.7501 18.59 32.6401 18.51 30.8501 17.13C30.7301 17.04 30.6001 16.94 30.4601 16.83C30.3501 16.74 30.2401 16.66 30.1301 16.58C27.5601 14.6 25.9401 13.35 25.0001 12.62C24.6801 12.37 24.4401 12.18 24.2701 12.04C24.0201 11.84 23.7801 11.65 23.5401 11.47C23.1701 11.17 22.8101 10.9 22.4801 10.63C19.6701 8.41998 18.1601 7.21998 17.5401 6.59998H17.5301C16.2201 5.27998 15.6701 4.54998 14.2801 3.73998C12.9801 2.98998 10.7501 1.67998 8.76005 2.52998C8.75005 2.52998 8.74005 2.53998 8.73005 2.53998C8.72005 2.53998 8.71005 2.54998 8.71005 2.55998C6.56005 3.51998 6.00005 6.43998 6.04005 8.10998C6.04005 8.20998 6.04005 8.30998 6.05005 8.40998C6.15005 9.87998 6.72005 11.03 7.17005 11.78C9.60005 15.9 16.1601 21.06 19.6701 23.65C19.8801 23.8 20.0801 23.95 20.2701 24.09" stroke="#491D19" stroke-width="2" stroke-linejoin="round"/>
</g>
</g>
<defs>
<clipPath id="clip0_213_183">
<rect width="64" height="64" fill="white"/>
</clipPath>
</defs>
</svg>
