<svg width="147" height="162" viewBox="0 0 147 162" fill="none" xmlns="http://www.w3.org/2000/svg">
<g id="mouse 2" clip-path="url(#clip0_82_2696)">
<g id="Design">
<g id="Group">
<path id="Vector" d="M125.915 76.5709C130.839 69.7652 134.701 61.3067 134.422 52.9859C134.24 47.5679 131.021 42.2822 126.337 40.2206C124.087 38.5613 121.698 37.7826 118.946 37.3364C117.797 37.1499 117.714 37.3314 117.08 36.4163C116.662 35.8129 116.488 34.7454 116.225 34.0564C115.655 32.5708 115.007 31.0541 114.124 29.7214C112.374 27.0798 109.659 25.0933 106.436 24.8916C105.245 24.8171 104.104 25.0238 102.927 25.151C100.675 25.3957 99.6323 24.496 97.9144 23.1755C95.6463 21.4325 93.3495 20.3395 90.4493 20.7889C89.0029 21.0135 87.6447 21.5868 86.156 21.4801C84.3441 21.3509 82.6513 20.7124 80.8011 20.6899C74.9362 20.6201 69.4858 23.5866 65.458 27.6888C60.2536 32.9923 57.2365 40.2808 54.5494 47.0834C51.6796 54.3496 49.5187 61.8069 47.6681 69.3891C46.6026 73.7571 45.1613 77.4765 41.6414 80.4358C38.6359 82.9631 35.2422 85.1154 32.0197 87.3502C25.1068 92.143 18.025 96.7194 10.376 100.26C7.9065 101.403 8.68703 104.901 10.7308 105.291C10.7463 105.429 10.7685 105.569 10.8047 105.714C14.6026 120.39 26.8476 130.676 39.8964 137.242C43.7507 139.181 47.7305 140.86 51.7458 142.434C53.7571 143.222 55.7793 143.984 57.8036 144.74C59.388 145.333 61.134 146.208 62.8713 146.096C65.8312 145.905 67.5521 143.372 68.7827 140.972C70.5412 137.543 72.2621 134.109 74.2331 130.793C78.8101 123.096 84.506 116.028 91.918 110.902C92.4627 110.526 92.7779 110.057 92.9163 109.56C96.0089 107.635 99.2191 105.881 102.502 104.189C109.339 100.665 116.414 96.8329 121.123 90.5462C124.189 86.4536 125.997 81.5569 125.918 76.5738L125.915 76.5709Z" fill="#FFE4CA"/>
<path id="Vector_2" d="M123.946 72.228C125.032 69.3742 126.023 66.4692 126.818 63.5193C127.55 60.8051 128.724 57.5126 128.214 54.697C128.17 54.4552 127.81 54.2624 127.641 54.5183C127.296 55.0444 127.01 55.6191 126.764 56.2212C125.86 56.1243 125.428 56.4876 124.872 57.2337C123.613 58.9268 122.72 61.0602 121.686 62.8948C121.014 64.0885 119.588 65.7138 119.627 67.1732C119.639 67.6131 119.768 68.0294 119.957 68.4351C117.847 67.4298 116.758 69.9724 115.667 71.422C115.031 72.2666 114.372 73.0914 113.696 73.8992C113.379 74.1284 113.073 74.3713 112.776 74.6292C112.459 74.9031 112.307 75.2244 112.277 75.5404C110.966 77.0074 109.59 78.4179 108.156 79.7746C107.173 80.7043 108.651 82.1578 109.704 81.4675C113.85 78.7511 118.242 76.4743 122.51 73.9693C123.153 73.5912 122.581 72.6756 121.933 72.8693C121.857 72.8923 121.785 72.9202 121.709 72.9432C121.818 72.739 121.897 72.5284 121.948 72.3121C122.436 72.9982 123.571 73.2158 123.948 72.2272L123.946 72.228ZM122.729 65.8237C122.603 66.427 122.511 67.0262 122.442 67.6218C122.272 67.2229 122.273 66.8229 122.61 66.0626C122.647 65.9823 122.69 65.9033 122.729 65.8237Z" fill="#F8B6AB"/>
<path id="Vector_3" d="M118.9 36.5599C115.862 35.427 113.108 36.6138 110.512 38.2811C107.564 40.1751 103.204 42.7117 101.719 46.0508C101.536 46.464 101.94 46.8678 102.354 46.7358C104.943 45.9163 107.118 43.7057 109.37 42.2246C111.569 40.7803 114.938 38.0815 117.72 39.1186C119.41 39.7484 120.601 37.1952 118.898 36.5593L118.9 36.5599Z" fill="#F8B6AB"/>
<path id="Vector_4" d="M101.607 25.4624C99.4548 24.3962 96.4559 26.6113 94.6678 27.7545C92.2718 29.2864 89.8903 31.2216 89.9089 34.2721C89.9139 35.2169 91.2023 35.2457 91.5835 34.5544C92.9381 32.089 94.8195 30.7274 97.1902 29.3171C98.6796 28.4311 100.727 28.0561 101.907 26.8094C102.307 26.3863 102.084 25.6998 101.605 25.4632L101.607 25.4624Z" fill="#F8B6AB"/>
<path id="Vector_5" d="M86.3503 21.5714C84.0665 19.9293 81.3859 21.7268 79.6602 23.4123C77.1277 25.887 75.6235 29.0693 75.8114 32.6176C75.8473 33.2918 76.934 33.5198 77.1649 32.8458C77.9484 30.5519 78.8629 28.1885 80.3871 26.2751C82.0196 24.2242 83.6641 23.487 86.1167 22.9056C86.6795 22.7717 86.7983 21.8947 86.3496 21.5729L86.3503 21.5714Z" fill="#F8B6AB"/>
<path id="Vector_6" d="M117.945 95.3317C105.144 102.801 91.4994 108.059 76.6384 109.353C76.1086 109.399 75.5211 109.877 75.4793 110.438C74.8966 118.457 73.4772 126.431 71.0935 134.113C70.6704 135.479 72.5475 136.466 73.1838 135.075C77.5362 125.543 83.6962 116.365 92.3064 110.207C92.774 109.873 92.9211 109.416 92.8625 108.987C102.133 106.334 110.943 102.045 118.371 95.9443C118.745 95.6385 118.359 95.0898 117.943 95.3325L117.945 95.3317Z" fill="#F8B6AB"/>
<path id="Vector_7" d="M54.7263 56.6024C56.5587 50.3094 58.624 43.9217 59.7053 37.4471C59.7483 37.193 59.3805 37.0795 59.2723 37.3145C57.7177 40.6808 56.4548 44.1615 55.3047 47.6869C53.4697 51.8036 51.9236 55.9937 50.5576 60.3605C49.4989 63.746 48.4094 67.2416 47.5486 70.7614C47.4866 70.904 47.4282 71.0466 47.3646 71.1885C44.9211 76.647 40.7113 79.8402 35.9918 83.2439C33.5203 85.0259 31.0774 86.8517 28.6503 88.6938C26.0153 90.6942 23.8363 92.9532 21.376 95.126C21.26 95.2294 21.3783 95.3992 21.5143 95.323C24.3745 93.7307 27.2359 92.4255 29.9928 90.6109C32.6794 88.8432 35.3497 87.0482 37.9925 85.2153C42.6172 82.0058 46.7443 78.7692 49.2458 73.5842C51.8085 68.2743 53.0843 62.2387 54.727 56.6009L54.7263 56.6024Z" fill="#F8B6AB"/>
<path id="Vector_8" d="M122.866 45.0383C122.836 44.8569 122.776 44.6888 122.704 44.5278C122.815 44.0744 122.505 43.5533 122.11 43.3587C121.685 43.1504 121.262 43.1039 120.846 43.1825C120.714 43.167 120.581 43.1581 120.447 43.1646C119.314 43.2165 118.459 44.0608 117.822 44.9157C117.17 45.7871 117.802 46.8781 118.85 46.87C119.716 46.8634 120.526 46.6124 121.216 46.1697C121.971 46.4919 123.033 46.0526 122.866 45.0383Z" fill="white"/>
<path id="Vector_9" d="M125.162 46.2376C124.57 45.9651 124.147 46.8841 124.739 47.1566C125.331 47.4291 125.754 46.5101 125.162 46.2376Z" fill="white"/>
<g id="Group_2">
<path id="Vector_10" d="M16.6866 99.0481C17.7816 98.6041 18.758 98.0767 19.741 97.4136C20.6595 96.7929 21.5794 96.1728 22.4986 95.5506C24.4079 94.2614 26.3181 92.9743 28.1914 91.6343C31.8355 89.0278 35.5443 86.4924 39.0889 83.7536C40.7257 82.4886 42.4478 81.1636 43.7612 79.5515C45.155 77.843 46.1661 75.8575 46.816 73.7598C48.1298 69.5222 49.1433 65.2005 50.4866 60.9692C51.8453 56.6928 53.361 52.467 55.034 48.3028C56.528 44.5825 58.0025 40.7595 59.9219 37.2312C61.2156 34.855 62.8993 32.5987 64.7949 30.5012C66.728 28.3651 68.8324 26.4719 71.2338 24.8577C72.3983 24.0745 73.4899 23.4379 74.7016 22.8891C75.2779 22.6281 75.8652 22.3938 76.4653 22.1906C77.0096 22.0068 77.7314 21.8055 78.073 21.7411C78.6629 21.6305 79.255 21.5426 79.8541 21.5101C80.5402 21.4727 80.6237 21.4714 81.2886 21.5504C81.5608 21.5819 81.8304 21.6267 82.0989 21.6818C82.2221 21.7079 82.3447 21.7354 82.4673 21.7666C82.5479 21.7875 82.6299 21.809 82.7112 21.8321C82.9257 21.8911 82.5038 21.7618 82.7142 21.8334C83.2351 22.01 83.7533 22.2197 84.2607 22.4334C84.6501 22.5982 85.0042 22.7179 85.4358 22.6967C85.6714 22.6862 85.9037 22.6633 86.1396 22.6638C86.558 22.6635 86.7116 22.2044 86.6342 21.875C86.4722 21.1967 86.2708 20.6355 85.6752 20.21C85.1298 19.8203 84.5802 19.5259 83.9461 19.3134C82.6934 18.8936 81.4279 18.7131 80.1075 18.7344C77.4109 18.7765 74.7974 19.7507 72.4397 20.9957C67.2515 23.7332 62.7641 28.125 59.453 32.9301C57.463 35.8167 56.0531 38.9703 54.6604 42.1768C52.8545 46.3321 51.2173 50.5596 49.7431 54.8441C48.2567 59.1591 46.9289 63.529 45.7652 67.942C45.2003 70.086 44.7576 72.2664 43.7712 74.2688C42.8872 76.0641 41.4836 77.4923 39.9606 78.7647C38.287 80.1606 36.4416 81.3225 34.6936 82.6175C32.8419 83.9891 30.9902 85.3607 29.1399 86.733C25.4329 89.48 21.7882 92.2953 18.1555 95.1395C17.2173 95.8737 16.401 96.6406 15.64 97.55C15.0446 98.2599 15.8024 99.4142 16.6956 99.0522L16.6866 99.0481Z" fill="#681515"/>
<path id="Vector_11" d="M76.5808 34.7179C78.295 33.1046 79.6741 31.146 81.2482 29.3944C82.8407 27.6224 84.4098 25.9639 86.5017 24.7677C89.6216 22.9832 93.6554 22.942 96.8725 24.5306C97.0869 24.6365 97.298 24.7499 97.5048 24.8685C97.5959 24.9212 97.687 24.9739 97.7768 25.0297C97.874 25.0888 97.8665 25.0854 97.7529 25.015C97.818 25.0576 97.8839 25.1024 97.9477 25.148C98.3476 25.4347 98.7207 25.756 99.1164 26.048C99.9376 26.653 100.686 27.5417 101.688 27.5776C101.96 27.5871 102.157 27.498 102.292 27.2556C102.851 26.2619 102.233 25.1954 101.628 24.3636C100.933 23.408 100.019 22.7459 99.0235 22.1326C97.1984 21.0097 95.0328 20.3447 92.8985 20.1914C90.6121 20.0277 88.2351 20.3195 86.1474 21.3068C83.6946 22.4685 81.6247 24.2749 79.8652 26.3197C78.8767 27.4686 78.0702 28.7356 77.27 30.0198C76.4984 31.2578 75.7593 32.4837 75.1436 33.806C74.7066 34.7438 75.9125 35.3474 76.5808 34.7179Z" fill="#681515"/>
<path id="Vector_12" d="M90.0698 36.6528C92.4971 34.3243 95.2118 32.3389 98.0862 30.5981C98.7329 30.2073 99.1843 29.9591 99.7644 29.6819C100.34 29.4062 100.929 29.1565 101.531 28.9379C102.118 28.7234 102.717 28.5429 103.322 28.3909C103.49 28.3489 103.297 28.3953 103.273 28.4005C103.338 28.3852 103.403 28.3721 103.467 28.3584C103.618 28.3286 103.768 28.2967 103.919 28.2706C104.215 28.2178 104.513 28.1745 104.812 28.1393C105.348 28.078 105.888 28.0504 106.429 28.0491C106.51 28.0487 106.592 28.0519 106.672 28.053C106.658 28.052 106.402 28.0405 106.576 28.0517C106.696 28.0603 106.815 28.0645 106.935 28.0746C107.212 28.0957 107.486 28.1265 107.761 28.1667C108.285 28.2436 108.789 28.371 109.301 28.4966C109.598 28.5705 109.055 28.4034 109.341 28.5099C109.467 28.5572 109.595 28.5963 109.721 28.6435C109.973 28.7357 110.222 28.8376 110.465 28.9477C110.921 29.1521 111.357 29.3908 111.786 29.6458C111.944 29.7403 111.674 29.5747 111.672 29.5718C111.736 29.6137 111.802 29.6548 111.866 29.6989C111.962 29.7647 112.058 29.8304 112.152 29.897C112.373 30.0547 112.59 30.2213 112.799 30.3934C113.213 30.7317 113.601 31.1008 113.981 31.4761C114.067 31.5605 114.151 31.6479 114.236 31.7338C114.499 32.0008 114.146 31.6188 114.331 31.8333C114.506 32.0365 114.681 32.2396 114.848 32.4481C115.245 32.946 115.609 33.4668 115.944 34.0084C116.116 34.2878 116.28 34.5719 116.438 34.8591C116.445 34.8735 116.549 35.0672 116.474 34.9246C116.388 34.7625 116.554 35.0839 116.569 35.1142C116.64 35.2569 116.708 35.3998 116.776 35.5427C117.15 36.3401 117.349 36.6934 117.695 37.4434C117.847 37.7747 117.982 38.111 118.127 38.444C118.308 38.8609 118.562 39.1545 118.862 39.487C119.328 40.006 120.061 39.8461 120.25 39.1705C120.459 38.4217 120.409 37.8256 120.26 37.0707C120.119 36.3442 119.978 35.589 119.713 34.8958C119.234 33.6519 118.605 32.4415 117.874 31.3266C116.519 29.2613 114.706 27.571 112.504 26.4368C107.685 23.9526 102.145 25.0034 97.5806 27.5127C94.0375 29.4611 91.297 32.4583 88.8923 35.6622C88.2876 36.467 89.3641 37.3282 90.0683 36.6521L90.0698 36.6528Z" fill="#681515"/>
<path id="Vector_13" d="M100.803 49.1467C105.236 46.7266 109.456 43.7455 114.18 41.8954C116.252 41.083 118.736 40.3591 120.906 40.5574C123.252 40.772 125.519 41.7487 127.404 43.1568C128.355 43.8668 129.241 44.6727 129.976 45.5823C130.29 45.9699 130.583 46.3751 130.854 46.7935C130.978 46.9858 131.096 47.1791 131.211 47.3761C131.275 47.4847 131.338 47.5947 131.397 47.7049C131.545 47.9748 131.348 47.5922 131.496 47.8944C131.914 48.7519 132.257 49.6434 132.518 50.5616C132.728 51.3035 132.895 52.1912 132.998 53.1651C133.396 56.9146 132.628 61.0644 131.41 64.6271C130.669 66.7944 129.689 68.8412 128.608 70.8561C128.132 71.7417 127.62 72.6087 127.055 73.4407C126.478 74.2907 125.952 75.1786 125.336 75.9999C124.972 76.4863 125.564 77.2437 126.093 76.8275C126.847 76.2318 127.612 75.6417 128.255 74.9229C128.929 74.1679 129.562 73.3783 130.16 72.5613C131.431 70.8216 132.485 68.9153 133.376 66.9556C135.234 62.869 136.306 58.4538 136.091 53.9468C135.874 49.3614 134.078 45.0298 130.695 41.8781C128.645 39.9691 126.093 38.5151 123.37 37.8423C120.693 37.1813 118.015 37.5781 115.409 38.3557C109.47 40.1277 104.891 44.3891 99.9014 47.8469C99.0436 48.4415 99.937 49.6185 100.808 49.1436L100.803 49.1467Z" fill="#681515"/>
<path id="Vector_14" d="M108.132 82.7767C111.223 79.4056 113.927 75.7196 116.588 72.0027C119.249 68.2858 121.963 64.5899 124.479 60.7743C125.221 59.6487 126.003 58.5364 126.688 57.3738C127.002 56.8392 127.371 56.3006 127.62 55.7322C127.889 55.117 128.009 54.4406 128.245 53.8104C128.432 53.3106 127.832 52.6076 127.341 53.0556C126.953 53.4102 126.548 53.7104 126.143 54.0377C125.666 54.4223 125.306 54.8851 124.926 55.361C124.186 56.2874 123.509 57.2534 122.819 58.217C121.486 60.078 120.202 61.9683 118.903 63.854C116.283 67.6597 113.56 71.402 111.009 75.256C110.305 76.3196 109.598 77.3819 108.89 78.4434C108.134 79.5754 107.48 80.7553 106.807 81.9381C106.351 82.7425 107.553 83.4092 108.131 82.7782L108.132 82.7767Z" fill="#681515"/>
<path id="Vector_15" d="M117.966 67.7658C118.925 68.9495 119.662 70.251 120.496 71.5178C121.306 72.7503 121.903 73.9097 122.424 75.2995C123.426 77.9608 123.789 80.7804 123.288 83.5019C123.234 83.7959 123.172 84.088 123.1 84.3775C123.056 84.5518 123.009 84.7269 122.958 84.8999C123.053 84.576 122.875 85.1429 122.875 85.1444C122.611 85.9008 122.282 86.6359 121.895 87.3369C121.473 88.0962 121.294 88.3635 120.824 89.0409C120.365 89.7018 119.878 90.3445 119.364 90.9639C117.438 93.2873 115.63 94.8611 113.131 96.6213C111.976 97.4343 110.783 98.1898 109.566 98.9037C108.955 99.2625 108.337 99.6106 107.717 99.9522C107.406 100.123 107.093 100.292 106.78 100.46C106.622 100.544 106.467 100.628 106.31 100.71C106.204 100.766 106.1 100.821 105.995 100.877C106.156 100.793 106.142 100.801 105.947 100.902C103.264 102.295 100.544 103.614 97.8679 105.021C95.273 106.386 92.7528 107.866 90.3937 109.612C87.5446 111.721 84.9633 114.204 82.6583 116.893C79.8712 120.145 77.4574 123.725 75.3234 127.433C74.2906 129.227 73.2254 131.056 72.4132 132.962C71.9884 133.959 71.6325 134.979 71.2083 135.975C70.7844 136.975 70.3877 137.959 70.0801 138.999C69.8528 139.763 71.0614 140.291 71.5053 139.655C72.041 138.891 72.5033 138.101 72.9687 137.294C73.4743 136.415 74.04 135.581 74.5778 134.722C75.6044 133.079 76.5317 131.377 77.5388 129.722C79.5025 126.497 81.6417 123.376 84.0818 120.491C86.3799 117.773 88.9153 115.276 91.7874 113.172C94.1971 111.407 96.801 109.909 99.4241 108.487C99.7387 108.317 100.055 108.147 100.372 107.979C100.53 107.895 100.689 107.812 100.847 107.727C100.867 107.717 101.39 107.444 101.05 107.621C101.739 107.262 102.43 106.908 103.121 106.554C104.536 105.83 105.952 105.107 107.36 104.367C109.969 102.994 112.548 101.547 114.964 99.8508C117.466 98.0919 119.802 96.055 121.766 93.704C123.87 91.1852 125.684 88.324 126.476 85.1112C127.318 81.6946 126.895 78.0491 125.648 74.7862C125.017 73.137 124.173 71.5504 123.172 70.0948C122.179 68.6521 120.826 67.4745 119.425 66.4369C118.57 65.8037 117.221 66.8426 117.969 67.7672L117.966 67.7658Z" fill="#681515"/>
</g>
</g>
</g>
</g>
<defs>
<clipPath id="clip0_82_2696">
<rect width="100.076" height="131.085" fill="white" transform="translate(55.6733 0.268799) rotate(24.7122)"/>
</clipPath>
</defs>
</svg>
