<svg width="215" height="40" viewBox="0 0 215 40" fill="none" xmlns="http://www.w3.org/2000/svg">
<g id="&#225;&#132;&#133;&#225;&#133;&#169;&#225;&#132;&#128;&#225;&#133;&#169; 1" clip-path="url(#clip0_82_3384)">
<g id="&#235;&#160;&#136;&#236;&#157;&#180;&#236;&#150;&#180;_1">
<g id="Group">
<path id="Vector" d="M1.34259 31.3227H16.0714L17.2421 24.6759H26.6799L25.5093 31.3227H40.2778L38.9352 38.9418H0L1.34259 31.3227ZM8.19444 0.88623H44.1733L40.205 23.4061H4.21958L8.19444 0.88623ZM14.5899 16.2103H32.3677L33.8029 8.082H16.0251L14.5899 16.2103Z" fill="#1A1A1A"/>
<path id="Vector_2" d="M45.3372 21.8849H84.279L82.9364 29.504H68.2473L66.3954 40H56.8319L58.6838 29.504H43.9946L45.3372 21.8849ZM83.7698 18.75H47.3676L50.5158 0.88623H86.4946L85.2248 8.082H58.6904L58.0621 11.6402H85.0264L83.7698 18.75Z" fill="#1A1A1A"/>
<path id="Vector_3" d="M111.098 36.6137L85.615 38.3068L92.1031 1.52106H115.384L114.114 8.71683H100.145L96.369 30.1322L112.447 28.9483L111.098 36.607V36.6137ZM118.565 0.251221H127.877L125.364 14.5171H130.615L129.186 22.5991H123.935L120.939 39.57H111.627L118.565 0.251221Z" fill="#1A1A1A"/>
<path id="Vector_4" d="M131.257 23.1085H167.236L165.437 33.3069H138.73L138.459 34.828H165.8L164.967 39.5701H128.353L130.205 29.0741H156.911L157.169 27.5926H130.463L131.257 23.1085ZM131.164 15.2381H170.106L169.034 21.336H130.093L131.164 15.2381ZM135.331 0H144.557L144.193 2.07672H161.634L161.997 0H171.31L168.896 13.6706H132.917L135.331 0ZM143.023 8.71693H160.463L160.761 7.02381H143.32L143.023 8.71693Z" fill="#FF841F"/>
<path id="Vector_5" d="M173.915 25.311H210.231L207.639 40.0001H197.903L199.259 32.2951H172.678L173.909 25.311H173.915ZM176.872 0.886364H198.71L194.616 14.5173H183.399L182.936 17.143L200.628 16.1708L199.517 22.4803L172.831 23.7898L175.456 8.88901H187.559L188.148 6.98425H175.787L176.858 0.886364H176.872ZM197.963 6.30964H204.272L205.337 0.258057H214.649L210.417 24.2594H201.104L202.989 13.5517H196.68L197.956 6.31626L197.963 6.30964Z" fill="#FF841F"/>
</g>
</g>
</g>
<defs>
<clipPath id="clip0_82_3384">
<rect width="214.649" height="40" fill="white"/>
</clipPath>
</defs>
</svg>
