<svg width="151" height="28" viewBox="0 0 151 28" fill="none" xmlns="http://www.w3.org/2000/svg">
<g id="&#225;&#132;&#133;&#225;&#133;&#169;&#225;&#132;&#128;&#225;&#133;&#169; 1" clip-path="url(#clip0_105_13)">
<g id="&#235;&#160;&#136;&#236;&#157;&#180;&#236;&#150;&#180;_1">
<g id="Group">
<path id="Vector" d="M0.939815 21.9259H11.25L12.0694 17.2731H18.6759L17.8565 21.9259H28.1944L27.2546 27.2593H0L0.939815 21.9259ZM5.73611 0.620361H30.9213L28.1435 16.3843H2.9537L5.73611 0.620361ZM10.213 11.3472H22.6574L23.662 5.6574H11.2176L10.213 11.3472Z" fill="#1A1A1A"/>
<path id="Vector_2" d="M31.7361 15.3194H58.9954L58.0556 20.6528H47.7732L46.4769 28H39.7824L41.0787 20.6528H30.7963L31.7361 15.3194ZM58.6389 13.125H33.1574L35.3611 0.620361H60.5463L59.6574 5.6574H41.0834L40.6435 8.14814H59.5185L58.6389 13.125Z" fill="#1A1A1A"/>
<path id="Vector_3" d="M77.7685 25.6296L59.9305 26.8148L64.4722 1.06479H80.7685L79.8796 6.10183H70.1018L67.4583 21.0926L78.713 20.2639L77.7685 25.625V25.6296ZM82.9954 0.175903H89.5139L87.7546 10.162H91.4306L90.4305 15.8194H86.7546L84.6574 27.6991H78.1389L82.9954 0.175903Z" fill="#1A1A1A"/>
<path id="Vector_4" d="M91.8796 16.1759H117.065L115.806 23.3148H97.1111L96.9213 24.3796H116.06L115.477 27.6991H89.8472L91.1435 20.3519H109.838L110.019 19.3148H91.3241L91.8796 16.1759ZM91.8148 10.6667H119.074L118.324 14.9352H91.0648L91.8148 10.6667ZM94.7315 0H101.19L100.935 1.4537H113.144L113.398 0H119.917L118.227 9.56944H93.0417L94.7315 0ZM100.116 6.10185H112.324L112.532 4.91667H100.324L100.116 6.10185Z" fill="#FF841F"/>
<path id="Vector_5" d="M121.741 17.7176H147.162L145.347 28H138.532L139.481 22.6065H120.875L121.736 17.7176H121.741ZM123.81 0.620357H139.097L136.231 10.162H128.38L128.056 12L140.44 11.3194L139.662 15.7361L120.981 16.6528L122.819 6.22221H131.292L131.704 4.88888H123.051L123.801 0.620357H123.81ZM138.574 4.41665H142.991L143.736 0.180542H150.255L147.292 16.9815H140.773L142.093 9.4861H137.676L138.569 4.42128L138.574 4.41665Z" fill="#FF841F"/>
</g>
</g>
</g>
<defs>
<clipPath id="clip0_105_13">
<rect width="150.255" height="28" fill="white"/>
</clipPath>
</defs>
</svg>
