<svg width="109" height="20" viewBox="0 0 109 20" fill="none" xmlns="http://www.w3.org/2000/svg">
<g id="&#225;&#132;&#133;&#225;&#133;&#169;&#225;&#132;&#128;&#225;&#133;&#169; 1" clip-path="url(#clip0_180_44)">
<g id="&#235;&#160;&#136;&#236;&#157;&#180;&#236;&#150;&#180;_1">
<g id="Group">
<path id="Vector" d="M1.50894 15.6614H8.87336L9.45868 12.338H14.1776L13.5923 15.6614H20.9765L20.3052 19.4709H0.837646L1.50894 15.6614ZM4.93487 0.443115H22.9243L20.9402 11.703H2.94744L4.93487 0.443115ZM8.13262 8.10515H17.0215L17.7391 4.041H8.85021L8.13262 8.10515Z" fill="#1A1A1A"/>
<path id="Vector_2" d="M23.5063 10.9425H42.9772L42.3059 14.752H34.9613L34.0354 20H29.2537L30.1796 14.752H22.835L23.5063 10.9425ZM42.7226 9.37499H24.5215L26.0956 0.443115H44.085L43.4501 4.041H30.1829L29.8688 5.8201H43.3509L42.7226 9.37499Z" fill="#1A1A1A"/>
<path id="Vector_3" d="M56.3866 18.3068L43.6452 19.1534L46.8893 0.760531H58.5295L57.8945 4.35841H50.9104L49.0222 15.0661L57.0612 14.4742L56.3866 18.3035V18.3068ZM60.1201 0.12561H64.7762L63.5195 7.25855H66.1452L65.4309 11.2996H62.8053L61.3072 19.785H56.6512L60.1201 0.12561Z" fill="#1A1A1A"/>
<path id="Vector_4" d="M66.4659 11.5542H84.4554L83.5559 16.6534H70.2027L70.0671 17.414H83.7378L83.3211 19.7851H65.0142L65.9401 14.537H79.2933L79.4223 13.7963H66.0691L66.4659 11.5542ZM66.4196 7.61905H85.8905L85.3548 10.668H65.8839L66.4196 7.61905ZM68.503 0H73.1161L72.9342 1.03836H81.6544L81.8363 0H86.4924L85.2854 6.83532H67.296L68.503 0ZM72.3489 4.35847H81.0691L81.2179 3.5119H72.4977L72.3489 4.35847Z" fill="#FF841F"/>
<path id="Vector_5" d="M87.7953 12.6555H105.953L104.657 20.0001H99.7894L100.467 16.1475H87.1769L87.792 12.6555H87.7953ZM89.2735 0.443182H100.193L98.1459 7.25866H92.5374L92.3059 8.57149L101.152 8.08538L100.596 11.2401L87.253 11.8949L88.5658 4.4445H94.6174L94.9117 3.49212H88.7312L89.2669 0.443182H89.2735ZM99.8191 3.15482H102.974L103.506 0.129028H108.162L106.046 12.1297H101.39L102.332 6.77585H99.1776L99.8158 3.15813L99.8191 3.15482Z" fill="#FF841F"/>
</g>
</g>
</g>
<defs>
<clipPath id="clip0_180_44">
<rect width="107.325" height="20" fill="white" transform="translate(0.837646)"/>
</clipPath>
</defs>
</svg>
