<svg width="149" height="129" viewBox="0 0 149 129" fill="none" xmlns="http://www.w3.org/2000/svg">
<g id="&#225;&#132;&#140;&#225;&#133;&#161;&#225;&#132;&#137;&#225;&#133;&#161;&#225;&#134;&#171; 3" clip-path="url(#clip0_77_2550)">
<g id="Group">
<g id="&#235;&#160;&#136;&#236;&#157;&#180;&#236;&#150;&#180;_2">
<g id="BACKGROUND_2">
<g id="Group_2" filter="url(#filter0_d_77_2550)">
<g id="Clip path group">
<mask id="mask0_77_2550" style="mask-type:luminance" maskUnits="userSpaceOnUse" x="0" y="0" width="149" height="129">
<g id="clippath">
<path id="Vector" d="M112.726 0.0697123L0.294434 74.7965L36.274 128.93L148.706 54.2035L112.726 0.0697123Z" fill="white"/>
</g>
</mask>
<g mask="url(#mask0_77_2550)">
<g id="Group_3">
<path id="Vector_2" d="M112.726 0.0697265L57.8167 36.5649L93.7962 90.6988L148.706 54.2035L112.726 0.0697265Z" fill="#7FCE2B"/>
<path id="Vector_3" d="M57.8166 36.5649L0.294434 74.7965L36.274 128.93L93.7961 90.6987L57.8166 36.5649Z" fill="#7FCE2B"/>
<g id="Group_4">
<g id="Vector_4" style="mix-blend-mode:multiply" opacity="0.38">
<path d="M71.8363 32.8394C71.8363 32.8394 58.3495 43.6823 64.6449 53.1882C71.6366 63.7078 87.4741 47.9694 87.4741 47.9694L71.8363 32.8394Z" fill="#96E047"/>
</g>
<path id="Vector_5" d="M85.0739 49.9227C90.0978 46.5836 91.5018 39.8616 88.2099 34.9087C84.9181 29.9559 78.1768 28.6476 73.1529 31.9867C68.1291 35.3257 66.725 42.0477 70.0169 47.0006C73.3088 51.9535 80.0501 53.2617 85.0739 49.9227Z" fill="#7FCE2B"/>
<path id="Vector_6" d="M87.061 35.6723C89.9382 40.0011 88.712 45.8716 84.3211 48.79C79.9302 51.7084 74.0428 50.5658 71.1657 46.237C68.2886 41.9081 69.5148 36.0376 73.9057 33.1193C78.2966 30.2009 84.1839 31.3434 87.061 35.6723Z" fill="#96E047"/>
<g id="Group_5" opacity="0.29">
<path id="Vector_7" d="M88.0493 36.0668C87.6401 36.3388 87.093 36.2326 86.8249 35.8292C84.0715 31.6866 78.4186 30.5895 74.2166 33.3824C73.8074 33.6543 73.2604 33.5482 72.9922 33.1448C72.7241 32.7414 72.8381 32.1959 73.2472 31.9239C78.2676 28.5871 85.0407 29.9016 88.3303 34.851C88.5984 35.2544 88.4845 35.7999 88.0753 36.0719L88.0493 36.0668Z" fill="white"/>
</g>
</g>
<g id="Group_6">
<g id="Vector_8" style="mix-blend-mode:multiply" opacity="0.38">
<path d="M101.313 13.2477C101.313 13.2477 87.8266 24.0906 94.1219 33.5966C101.114 44.1161 116.951 28.3778 116.951 28.3778L101.313 13.2477Z" fill="#96E047"/>
</g>
<path id="Vector_9" d="M114.551 30.331C119.575 26.9919 120.979 20.27 117.687 15.3171C114.395 10.3642 107.654 9.05592 102.63 12.395C97.6061 15.7341 96.2021 22.456 99.4939 27.4089C102.786 32.3618 109.527 33.6701 114.551 30.331Z" fill="#7FCE2B"/>
<path id="Vector_10" d="M116.538 16.0806C119.415 20.4095 118.189 26.28 113.798 29.1983C109.407 32.1167 103.52 30.9741 100.643 26.6453C97.7656 22.3165 98.9918 16.446 103.383 13.5276C107.774 10.6092 113.661 11.7518 116.538 16.0806Z" fill="#96E047"/>
<g id="Group_7" opacity="0.29">
<path id="Vector_11" d="M117.526 16.4752C117.117 16.7471 116.57 16.641 116.302 16.2376C113.549 12.0949 107.896 10.9979 103.694 13.7907C103.284 14.0627 102.737 13.9565 102.469 13.5531C102.201 13.1497 102.315 12.6042 102.724 12.3322C107.745 8.99547 114.502 10.3204 117.792 15.2698C118.06 15.6732 117.946 16.2187 117.537 16.4907L117.526 16.4752Z" fill="white"/>
</g>
</g>
<g id="Group_8">
<g id="Vector_12" style="mix-blend-mode:multiply" opacity="0.38">
<path d="M90.8106 61.3881C90.8106 61.3881 77.3239 72.231 83.6192 81.7369C90.611 92.2565 106.448 76.5181 106.448 76.5181L90.8106 61.3881Z" fill="#96E047"/>
</g>
<path id="Vector_13" d="M107.174 63.442C110.463 68.3914 109.058 75.1191 104.038 78.4559C99.0175 81.7926 92.2704 80.4833 88.9808 75.5338C85.6912 70.5843 87.0861 63.8411 92.1065 60.5044C97.1269 57.1676 103.874 58.477 107.174 63.442Z" fill="#7FCE2B"/>
<path id="Vector_14" d="M106.025 64.2055C108.902 68.5343 107.676 74.4048 103.285 77.3232C98.8943 80.2416 93.007 79.099 90.1298 74.7702C87.2527 70.4413 88.4789 64.5708 92.8698 61.6525C97.2607 58.7341 103.148 59.8767 106.025 64.2055Z" fill="#96E047"/>
<g id="Group_9" opacity="0.29">
<path id="Vector_15" d="M107.024 64.6155C106.614 64.8875 106.067 64.7813 105.799 64.3779C103.046 60.2353 97.393 59.1382 93.191 61.9311C92.7818 62.203 92.2347 62.0969 91.9666 61.6935C91.6985 61.2901 91.8124 60.7446 92.2216 60.4726C97.242 57.1358 104.015 58.4503 107.305 63.3997C107.573 63.8031 107.459 64.3486 107.05 64.6206L107.024 64.6155Z" fill="white"/>
</g>
</g>
<g id="Group_10">
<g id="Vector_16" style="mix-blend-mode:multiply" opacity="0.38">
<path d="M120.288 41.7963C120.288 41.7963 106.801 52.6392 113.097 62.1452C120.088 72.6647 135.926 56.9263 135.926 56.9263L120.288 41.7963Z" fill="#96E047"/>
</g>
<path id="Vector_17" d="M136.651 43.8502C139.941 48.7996 138.536 55.5273 133.515 58.8641C128.495 62.2008 121.748 60.8915 118.458 55.942C115.169 50.9925 116.563 44.2493 121.584 40.9126C126.604 37.5758 133.351 38.8852 136.651 43.8502Z" fill="#7FCE2B"/>
<path id="Vector_18" d="M135.502 44.6137C138.38 48.9425 137.153 54.813 132.762 57.7314C128.372 60.6498 122.484 59.5072 119.607 55.1784C116.73 50.8495 117.956 44.979 122.347 42.0607C126.738 39.1423 132.625 40.2849 135.502 44.6137Z" fill="#96E047"/>
<g id="Group_11" opacity="0.29">
<path id="Vector_19" d="M136.501 45.0237C136.092 45.2957 135.545 45.1895 135.277 44.7861C132.523 40.6435 126.87 39.5464 122.668 42.3393C122.259 42.6112 121.712 42.5051 121.444 42.1017C121.176 41.6983 121.29 41.1528 121.699 40.8808C126.719 37.5441 133.477 38.8689 136.766 43.8184C137.034 44.2218 136.92 44.7673 136.511 45.0393L136.501 45.0237Z" fill="white"/>
</g>
</g>
<g id="Group_12">
<g id="Vector_20" style="mix-blend-mode:multiply" opacity="0.38">
<path d="M14.5028 70.9454C14.5028 70.9454 1.02632 81.8038 7.3217 91.3098C14.3134 101.829 30.1509 86.091 30.1509 86.091L14.5028 70.9454Z" fill="#96E047"/>
</g>
<path id="Vector_21" d="M30.8763 73.0149C34.1659 77.9643 32.771 84.7075 27.7349 88.0548C22.6987 91.402 15.9675 90.0821 12.6675 85.1172C9.3676 80.1522 10.7832 73.44 15.8036 70.1032C20.824 66.7665 27.5867 68.0654 30.8763 73.0149Z" fill="#7FCE2B"/>
<path id="Vector_22" d="M29.7275 73.7784C32.6047 78.1072 31.3785 83.9777 26.9876 86.8961C22.5967 89.8144 16.7093 88.6719 13.8322 84.3431C10.9551 80.0142 12.1813 74.1437 16.5722 71.2254C20.9631 68.307 26.8504 69.4495 29.7275 73.7784Z" fill="#96E047"/>
<g id="Group_13" opacity="0.29">
<path id="Vector_23" d="M30.7158 74.1729C30.3066 74.4449 29.7595 74.3387 29.4914 73.9353C26.738 69.7926 21.0851 68.6956 16.8831 71.4884C16.4739 71.7604 15.9269 71.6542 15.6587 71.2508C15.3906 70.8474 15.5046 70.3019 15.9138 70.03C20.9342 66.6932 27.6915 68.0181 30.9811 72.9676C31.2492 73.371 31.1353 73.9165 30.7261 74.1884L30.7158 74.1729Z" fill="white"/>
</g>
</g>
<g id="Group_14">
<g id="Vector_24" style="mix-blend-mode:multiply" opacity="0.38">
<path d="M43.9801 51.3538C43.9801 51.3538 30.4933 62.1967 36.7887 71.7026C43.7804 82.2222 59.6179 66.4838 59.6179 66.4838L43.9801 51.3538Z" fill="#96E047"/>
</g>
<path id="Vector_25" d="M57.2177 68.4371C62.2416 65.098 63.6456 58.376 60.3537 53.4231C57.0618 48.4703 50.3206 47.162 45.2967 50.5011C40.2728 53.8401 38.8688 60.5621 42.1607 65.515C45.4526 70.4679 52.1939 71.7761 57.2177 68.4371Z" fill="#7FCE2B"/>
<path id="Vector_26" d="M59.2048 54.1867C62.082 58.5155 60.8558 64.386 56.4649 67.3044C52.074 70.2228 46.1866 69.0802 43.3095 64.7514C40.4324 60.4225 41.6586 54.552 46.0495 51.6337C50.4403 48.7153 56.3277 49.8579 59.2048 54.1867Z" fill="#96E047"/>
<g id="Group_15" opacity="0.29">
<path id="Vector_27" d="M60.1931 54.5812C59.7839 54.8532 59.2368 54.747 58.9687 54.3436C56.2153 50.201 50.5624 49.1039 46.3604 51.8968C45.9512 52.1687 45.4042 52.0626 45.136 51.6592C44.8679 51.2558 44.9819 50.7103 45.391 50.4383C50.4114 47.1015 57.1845 48.416 60.4741 53.3654C60.7422 53.7688 60.6283 54.3143 60.2191 54.5863L60.1931 54.5812Z" fill="white"/>
</g>
</g>
<g id="Group_16">
<g id="Vector_28" style="mix-blend-mode:multiply" opacity="0.38">
<path d="M33.4774 99.4941C33.4774 99.4941 19.9906 110.337 26.286 119.843C33.2777 130.363 49.1152 114.624 49.1152 114.624L33.4774 99.4941Z" fill="#96E047"/>
</g>
<path id="Vector_29" d="M49.8407 101.548C53.1304 106.498 51.7251 113.225 46.689 116.572C41.6528 119.92 34.9216 118.6 31.6319 113.65C28.3423 108.701 29.7373 101.958 34.7577 98.6209C39.7781 95.2842 46.5408 96.5831 49.8407 101.548Z" fill="#7FCE2B"/>
<path id="Vector_30" d="M48.6919 102.312C51.569 106.64 50.3428 112.511 45.9519 115.429C41.561 118.348 35.6737 117.205 32.7966 112.876C29.9194 108.547 31.1456 102.677 35.5365 99.7586C39.9274 96.8402 45.8148 97.9827 48.6919 102.312Z" fill="#96E047"/>
<g id="Group_17" opacity="0.48">
<path id="Vector_31" opacity="0.29" d="M49.6904 102.722C49.2812 102.994 48.7341 102.887 48.466 102.484C45.7126 98.3414 40.0597 97.2443 35.8577 100.037C35.4485 100.309 34.9015 100.203 34.6334 99.7995C34.3652 99.3961 34.4792 98.8507 34.8884 98.5787C39.9088 95.2419 46.6661 96.5668 49.9557 101.516C50.2238 101.92 50.1099 102.465 49.7007 102.737L49.6904 102.722Z" fill="white"/>
</g>
</g>
<g id="Group_18">
<g id="Vector_32" style="mix-blend-mode:multiply" opacity="0.38">
<path d="M62.9547 79.9023C62.9547 79.9023 49.4679 90.7452 55.7633 100.251C62.755 110.771 78.5925 95.0324 78.5925 95.0324L62.9547 79.9023Z" fill="#96E047"/>
</g>
<path id="Vector_33" d="M79.3179 81.9562C82.6075 86.9057 81.2023 93.6334 76.1819 96.9702C71.1615 100.307 64.4145 98.9976 61.1249 94.0481C57.8352 89.0986 59.2302 82.3554 64.2506 79.0186C69.271 75.6819 76.018 76.9913 79.3179 81.9562Z" fill="#7FCE2B"/>
<path id="Vector_34" d="M78.1692 82.7198C81.0463 87.0486 79.8201 92.9191 75.4292 95.8375C71.0383 98.7558 65.151 97.6133 62.2739 93.2845C59.3967 88.9556 60.6229 83.0851 65.0138 80.1668C69.4047 77.2484 75.2921 78.3909 78.1692 82.7198Z" fill="#96E047"/>
<g id="Group_19" opacity="0.29">
<path id="Vector_35" d="M79.1677 83.1298C78.7585 83.4018 78.2114 83.2956 77.9433 82.8922C75.1899 78.7496 69.537 77.6525 65.335 80.4454C64.9258 80.7173 64.3788 80.6112 64.1107 80.2077C63.8425 79.8043 63.9565 79.2589 64.3657 78.9869C69.3861 75.6501 76.1591 76.9646 79.4487 81.914C79.7169 82.3174 79.6029 82.8629 79.1937 83.1349L79.1677 83.1298Z" fill="white"/>
</g>
</g>
<g id="Group_20" opacity="0.22">
<g id="Vector_36" style="mix-blend-mode:multiply" opacity="0.22">
<path d="M148.064 54.8088C147.655 55.0808 147.108 54.9746 146.84 54.5712L112.273 2.56303L2.23351 75.6999C1.82432 75.9718 1.27727 75.8657 0.998838 75.4468C0.720406 75.0278 0.844657 74.4979 1.25384 74.2259L112.033 0.597417C112.442 0.325457 112.989 0.431631 113.257 0.835036L148.309 53.5725C148.577 53.9759 148.463 54.5213 148.054 54.7933L148.064 54.8088Z" fill="#E6C40F"/>
</g>
</g>
<g id="Group_21" opacity="0.22">
<g id="Vector_37" style="mix-blend-mode:multiply" opacity="0.22">
<path d="M147.877 54.7995L37.0816 128.438C36.6724 128.71 36.1254 128.604 35.8572 128.201L0.805781 75.4634C0.537661 75.06 0.641288 74.499 1.05047 74.227C1.45966 73.955 2.00671 74.0612 2.27483 74.4646L36.8416 126.473L146.881 53.3359C147.29 53.064 147.837 53.1701 148.106 53.5735C148.374 53.9769 148.26 54.5224 147.851 54.7944L147.877 54.7995Z" fill="#E6C40F"/>
</g>
</g>
</g>
</g>
</g>
</g>
</g>
</g>
</g>
</g>
<defs>
<filter id="filter0_d_77_2550" x="-1.70557" y="-0.930298" width="152.411" height="132.861" filterUnits="userSpaceOnUse" color-interpolation-filters="sRGB">
<feFlood flood-opacity="0" result="BackgroundImageFix"/>
<feColorMatrix in="SourceAlpha" type="matrix" values="0 0 0 0 0 0 0 0 0 0 0 0 0 0 0 0 0 0 127 0" result="hardAlpha"/>
<feOffset dy="1"/>
<feGaussianBlur stdDeviation="1"/>
<feColorMatrix type="matrix" values="0 0 0 0 0 0 0 0 0 0 0 0 0 0 0 0 0 0 0.45 0"/>
<feBlend mode="normal" in2="BackgroundImageFix" result="effect1_dropShadow_77_2550"/>
<feBlend mode="normal" in="SourceGraphic" in2="effect1_dropShadow_77_2550" result="shape"/>
</filter>
<clipPath id="clip0_77_2550">
<rect width="135" height="65" fill="white" transform="translate(0.294434 74.7965) rotate(-33.6097)"/>
</clipPath>
</defs>
</svg>
