<svg width="148" height="150" viewBox="0 0 148 150" fill="none" xmlns="http://www.w3.org/2000/svg">
<g clip-path="url(#clip0_77_2499)">
<g filter="url(#filter0_d_77_2499)">
<mask id="mask0_77_2499" style="mask-type:luminance" maskUnits="userSpaceOnUse" x="3" y="3" width="144" height="147">
<path d="M87.6093 3.42612L3.7594 95.4504L62.8625 149.303L146.712 57.2791L87.6093 3.42612Z" fill="white"/>
</mask>
<g mask="url(#mask0_77_2499)">
<path d="M87.6093 3.42612L3.7594 95.4504L62.8625 149.303L146.712 57.2791L87.6093 3.42612Z" fill="#FF0000"/>
<g style="mix-blend-mode:multiply" opacity="0.38">
<path d="M94.7021 17.0783C94.7021 17.0783 76.7579 6.18219 68.3957 17.4352C59.1339 29.9137 83.6756 41.4292 83.6756 41.4292L94.7021 17.0783Z" fill="#FF3F4C"/>
</g>
<path d="M98.9782 36.7482C94.6143 42.6264 86.3197 43.8695 80.4391 39.503C74.5586 35.1365 73.3115 26.8416 77.6754 20.9634C82.0394 15.0852 90.334 13.842 96.2145 18.2086C102.095 22.5751 103.342 30.8699 98.9782 36.7482Z" fill="#FF4C4C"/>
<path d="M97.6505 35.7554C93.8359 40.8946 86.588 41.9758 81.4468 38.1589C76.3055 34.3421 75.2208 27.0939 79.0354 21.9547C82.85 16.8155 90.098 15.7343 95.2392 19.5512C100.38 23.368 101.465 30.6161 97.6505 35.7554Z" fill="#FF4E4E"/>
<g opacity="0.3">
<path d="M97.5815 37.056C97.0948 36.7055 96.9983 36.0288 97.3486 35.5422C100.98 30.6386 99.9409 23.6803 95.0353 20.0471C94.5486 19.6966 94.4521 19.0199 94.8024 18.5334C95.1527 18.0468 95.8294 17.9507 96.3161 18.3012C102.18 22.6523 103.428 30.9795 99.0798 36.8408C98.7295 37.3273 98.0528 37.4235 97.5661 37.0729L97.5815 37.056Z" fill="white"/>
</g>
<g style="mix-blend-mode:multiply" opacity="0.38">
<path d="M126.148 46.1961C126.148 46.1961 107.679 36.2162 99.8868 47.8645C91.2612 60.7678 116.33 71.0588 116.33 71.0588L126.148 46.1961Z" fill="#FF3F4C"/>
</g>
<path d="M131.419 65.6252C127.357 71.7165 119.129 73.362 113.036 69.2972C106.942 65.2324 105.293 57.0049 109.355 50.9136C113.417 44.8222 121.644 43.1768 127.738 47.2415C133.831 51.3063 135.481 59.5338 131.419 65.6252Z" fill="#FF4C4C"/>
<path d="M130.029 64.7001C126.483 70.0215 119.284 71.4573 113.96 67.9083C108.637 64.3594 107.198 57.1601 110.744 51.8387C114.291 46.5172 121.49 45.0815 126.813 48.6304C132.137 52.1794 133.576 59.3787 130.029 64.7001Z" fill="#FF4E4E"/>
<g opacity="0.3">
<path d="M130.01 66.0147C129.507 65.6811 129.379 65.0059 129.712 64.5039C133.107 59.4165 131.715 52.5394 126.626 49.1418C126.124 48.8082 125.995 48.133 126.329 47.631C126.662 47.1291 127.337 47.0005 127.839 47.3341C133.916 51.3835 135.567 59.6434 131.52 65.7178C131.187 66.2197 130.512 66.3483 130.01 66.0147Z" fill="white"/>
</g>
<g style="mix-blend-mode:multiply" opacity="0.38">
<path d="M65.7288 48.8763C65.7288 48.8763 47.7846 37.9802 39.4224 49.2332C30.1606 61.7117 54.7023 73.2272 54.7023 73.2272L65.7288 48.8763Z" fill="#FF3F4C"/>
</g>
<path d="M70.005 68.5461C65.641 74.4244 57.3464 75.6675 51.4659 71.301C45.5853 66.9344 44.3382 58.6396 48.7022 52.7614C53.0661 46.8831 61.3607 45.64 67.2413 50.0066C73.1218 54.3731 74.3689 62.6679 70.005 68.5461Z" fill="#FF4C4C"/>
<path d="M68.6773 67.5533C64.8627 72.6926 57.6147 73.7738 52.4735 69.9569C47.3322 66.14 46.2476 58.8919 50.0622 53.7527C53.8768 48.6135 61.1247 47.5323 66.2659 51.3491C71.4072 55.166 72.4919 62.4141 68.6773 67.5533Z" fill="#FF4E4E"/>
<g opacity="0.3">
<path d="M68.6083 68.854C68.1216 68.5035 68.0251 67.8267 68.3754 67.3402C72.0064 62.4365 70.9677 55.4782 66.0621 51.8451C65.5753 51.4946 65.4789 50.8179 65.8292 50.3313C66.1795 49.8448 66.8562 49.7486 67.3429 50.0992C73.2065 54.4503 74.4551 62.7774 70.1066 68.6387C69.7563 69.1253 69.0796 69.2214 68.5929 68.8709L68.6083 68.854Z" fill="white"/>
</g>
<g style="mix-blend-mode:multiply" opacity="0.38">
<path d="M97.1749 77.9939C97.1749 77.9939 78.7058 68.0141 70.9136 79.6624C62.2879 92.5656 87.3563 102.857 87.3563 102.857L97.1749 77.9939Z" fill="#FF3F4C"/>
</g>
<path d="M102.43 97.4401C98.3679 103.531 90.1408 105.177 84.0472 101.112C77.9537 97.0474 76.3043 88.8198 80.3664 82.7285C84.4284 76.6372 92.6555 74.9917 98.7491 79.0565C104.843 83.1212 106.492 91.3488 102.43 97.4401Z" fill="#FF4C4C"/>
<path d="M101.041 96.515C97.494 101.836 90.295 103.272 84.9717 99.7233C79.6483 96.1743 78.2091 88.975 81.7557 83.6536C85.3023 78.3321 92.5012 76.8964 97.8246 80.4454C103.148 83.9943 104.587 91.1936 101.041 96.515Z" fill="#FF4E4E"/>
<g opacity="0.3">
<path d="M101.036 97.8127C100.534 97.4791 100.405 96.8039 100.739 96.3019C104.134 91.2145 102.742 84.3374 97.653 80.9398C97.1508 80.6062 97.022 79.931 97.3554 79.429C97.6887 78.9271 98.3639 78.7985 98.866 79.1321C104.943 83.1814 106.594 91.4413 102.547 97.5157C102.214 98.0177 101.538 98.1462 101.036 97.8127Z" fill="white"/>
</g>
<g style="mix-blend-mode:multiply" opacity="0.38">
<path d="M36.8942 80.5218C36.8942 80.5218 18.95 69.6257 10.5878 80.8787C1.326 93.3572 25.8677 104.873 25.8677 104.873L36.8942 80.5218Z" fill="#FF3F4C"/>
</g>
<path d="M41.1859 100.175C36.8219 106.053 28.5273 107.296 22.6468 102.93C16.7662 98.563 15.5191 90.2682 19.8831 84.3899C24.247 78.5117 32.5416 77.2686 38.4222 81.6351C44.3027 86.0016 45.5498 94.2964 41.1859 100.175Z" fill="#FF4C4C"/>
<path d="M39.8428 99.1988C36.0282 104.338 28.7803 105.419 23.639 101.602C18.4978 97.7855 17.4131 90.5374 21.2277 85.3982C25.0423 80.259 32.2902 79.1778 37.4315 82.9946C42.5727 86.8115 43.6574 94.0596 39.8428 99.1988Z" fill="#FF4E4E"/>
<g opacity="0.3">
<path d="M39.7738 100.499C39.2871 100.149 39.1906 99.4723 39.5409 98.9857C43.1719 94.0821 42.1332 87.1237 37.2276 83.4906C36.7409 83.1401 36.6444 82.4634 36.9947 81.9768C37.345 81.4903 38.0217 81.3941 38.5084 81.7447C44.372 86.0958 45.6206 94.4229 41.2721 100.284C40.9218 100.771 40.2451 100.867 39.7584 100.516L39.7738 100.499Z" fill="white"/>
</g>
<g style="mix-blend-mode:multiply" opacity="0.38">
<path d="M68.3558 109.622C68.3558 109.622 49.8867 99.6426 42.0945 111.291C33.4688 124.194 58.5372 134.485 58.5372 134.485L68.3558 109.622Z" fill="#FF3F4C"/>
</g>
<path d="M73.6109 129.069C69.5488 135.16 61.3217 136.805 55.2282 132.741C49.1346 128.676 47.4852 120.448 51.5473 114.357C55.6093 108.266 63.8365 106.62 69.93 110.685C76.0235 114.75 77.6729 122.977 73.6109 129.069Z" fill="#FF4C4C"/>
<path d="M72.2215 128.144C68.6749 133.465 61.4759 134.901 56.1526 131.352C50.8292 127.803 49.39 120.604 52.9366 115.282C56.4832 109.961 63.6821 108.525 69.0055 112.074C74.3289 115.623 75.7681 122.822 72.2215 128.144Z" fill="#FF4E4E"/>
<g opacity="0.3">
<path d="M72.2171 129.441C71.715 129.108 71.5861 128.432 71.9195 127.93C75.3148 122.843 73.9231 115.966 68.8339 112.568C68.3318 112.235 68.2029 111.56 68.5363 111.058C68.8696 110.556 69.5448 110.427 70.047 110.761C76.1235 114.81 77.7745 123.07 73.7278 129.144C73.3945 129.646 72.7193 129.775 72.2171 129.441Z" fill="white"/>
</g>
<g opacity="0.22">
<g style="mix-blend-mode:multiply" opacity="0.38">
<path d="M146.155 58.1968C145.754 58.6371 145.074 58.6685 144.634 58.2672L87.8515 6.52881L5.97639 96.3858C5.57527 96.8261 4.89555 96.8575 4.45512 96.4562C4.01468 96.0549 3.98293 95.3752 4.38405 94.9349L86.9842 4.28212C87.3854 3.8419 88.0651 3.81046 88.5055 4.21178L146.084 56.6756C146.524 57.0769 146.556 57.7566 146.155 58.1968Z" fill="#E6C40F"/>
</g>
</g>
<g style="mix-blend-mode:multiply" opacity="0.22">
<g style="mix-blend-mode:multiply" opacity="0.38">
<path d="M146.294 58.0445L63.6938 148.697C63.2926 149.138 62.6129 149.169 62.1725 148.768L4.57706 96.2885C4.13663 95.8872 4.10488 95.2074 4.506 94.7672C4.90712 94.327 5.58683 94.2956 6.02727 94.6969L62.8096 146.435L144.685 56.5782C145.086 56.138 145.766 56.1066 146.206 56.5079C146.646 56.9092 146.678 57.5889 146.277 58.0291L146.294 58.0445Z" fill="#FF3F4C"/>
</g>
</g>
</g>
</g>
</g>
<defs>
<filter id="filter0_d_77_2499" x="1.7594" y="2.42615" width="146.953" height="149.877" filterUnits="userSpaceOnUse" color-interpolation-filters="sRGB">
<feFlood flood-opacity="0" result="BackgroundImageFix"/>
<feColorMatrix in="SourceAlpha" type="matrix" values="0 0 0 0 0 0 0 0 0 0 0 0 0 0 0 0 0 0 127 0" result="hardAlpha"/>
<feOffset dy="1"/>
<feGaussianBlur stdDeviation="1"/>
<feColorMatrix type="matrix" values="0 0 0 0 0 0 0 0 0 0 0 0 0 0 0 0 0 0 0.45 0"/>
<feBlend mode="normal" in2="BackgroundImageFix" result="effect1_dropShadow_77_2499"/>
<feBlend mode="normal" in="SourceGraphic" in2="effect1_dropShadow_77_2499" result="shape"/>
</filter>
<clipPath id="clip0_77_2499">
<rect width="85" height="125" fill="white" transform="translate(84.1892) rotate(42.3389)"/>
</clipPath>
</defs>
</svg>
