<svg width="79" height="79" viewBox="0 0 79 79" fill="none" xmlns="http://www.w3.org/2000/svg">
<g id="Clip path group">
<mask id="mask0_77_2498" style="mask-type:luminance" maskUnits="userSpaceOnUse" x="0" y="0" width="79" height="79">
<g id="clippath-1">
<path id="Vector" d="M78.9544 0H0.199707V78.8182H78.9544V0Z" fill="white"/>
</g>
</mask>
<g mask="url(#mask0_77_2498)">
<g id="Group">
<path id="Vector_2" d="M78.9544 0H0.199707V78.8182H78.9544V0Z" fill="#FF611F"/>
<g id="Group_2">
<g id="Group_3" style="mix-blend-mode:multiply" opacity="0.57">
<path id="Vector_3" d="M16.6135 5.65747C16.6135 5.65747 -4.00024 7.56601 -4.00024 21.3802C-4.00024 36.694 22.1529 31.4228 22.1529 31.4228L16.6135 5.65747Z" fill="#FF611F"/>
</g>
<path id="Vector_4" d="M31.5289 18.7219C31.5289 25.9471 25.6717 31.7863 18.475 31.7863C11.2784 31.7863 5.42114 25.9244 5.42114 18.7219C5.42114 11.5194 11.2784 5.65747 18.475 5.65747C25.6717 5.65747 31.5289 11.5194 31.5289 18.7219Z" fill="#FF611F"/>
<g id="Group_4" opacity="0.83">
<path id="Vector_5" d="M29.8945 18.7218C29.8945 25.0382 24.7865 30.1277 18.4979 30.1277C12.2094 30.1277 7.10132 25.0155 7.10132 18.7218C7.10132 12.4282 12.2094 7.31604 18.4979 7.31604C24.7865 7.31604 29.8945 12.4282 29.8945 18.7218Z" fill="#FF8E5F"/>
</g>
<g id="Group_5" opacity="0.48">
<path id="Vector_6" d="M30.5983 19.7898C30.0081 19.7898 29.5313 19.3126 29.5313 18.7219C29.5313 12.7009 24.6276 7.79322 18.6114 7.79322C18.0212 7.79322 17.5444 7.31608 17.5444 6.72535C17.5444 6.13461 18.0212 5.65747 18.6114 5.65747C25.8081 5.65747 31.6653 11.5194 31.6653 18.7219C31.6653 19.3126 31.1886 19.7898 30.5983 19.7898Z" fill="white"/>
</g>
</g>
<g id="Group_6">
<g id="Group_7" style="mix-blend-mode:multiply" opacity="0.57">
<path id="Vector_7" d="M58.8855 5.65747C58.8855 5.65747 38.2944 7.56601 38.2717 21.3802C38.2717 36.694 64.4249 31.4228 64.4249 31.4228L58.8855 5.65747Z" fill="#FF611F"/>
</g>
<path id="Vector_8" d="M73.8236 18.7219C73.8236 25.9471 67.9664 31.7863 60.7697 31.7863C53.573 31.7863 47.7158 25.9244 47.7158 18.7219C47.7158 11.5194 53.573 5.65747 60.7697 5.65747C67.9664 5.65747 73.8236 11.5194 73.8236 18.7219Z" fill="#FF611F"/>
<g id="Group_8" opacity="0.83">
<path id="Vector_9" d="M72.1665 18.7218C72.1665 25.0382 67.0585 30.1277 60.7699 30.1277C54.4813 30.1277 49.3733 25.0155 49.3733 18.7218C49.3733 12.4282 54.4813 7.31604 60.7699 7.31604C67.0585 7.31604 72.1665 12.4282 72.1665 18.7218Z" fill="#FF8E5F"/>
</g>
<g id="Group_9" opacity="0.48">
<path id="Vector_10" d="M72.8703 19.7898C72.28 19.7898 71.8033 19.3126 71.8033 18.7219C71.8033 12.7009 66.8996 7.79322 60.8834 7.79322C60.2932 7.79322 59.8164 7.31608 59.8164 6.72535C59.8164 6.13461 60.2932 5.65747 60.8834 5.65747C68.0801 5.65747 73.9373 11.5194 73.9373 18.7219C73.9373 19.3126 73.4606 19.7898 72.8703 19.7898Z" fill="white"/>
</g>
</g>
<g id="Group_10">
<g id="Group_11" style="mix-blend-mode:multiply" opacity="0.57">
<path id="Vector_11" d="M16.6135 47.2137C16.6135 47.2137 -4.00024 49.1223 -4.00024 62.9365C-4.00024 78.2503 22.1529 72.9791 22.1529 72.9791L16.6135 47.2137Z" fill="#FF611F"/>
</g>
<path id="Vector_12" d="M31.5289 60.2782C31.5289 67.5034 25.6717 73.3426 18.475 73.3426C11.2784 73.3426 5.42114 67.4806 5.42114 60.2782C5.42114 53.0757 11.2784 47.2137 18.475 47.2137C25.6717 47.2137 31.5289 53.0757 31.5289 60.2782Z" fill="#FF611F"/>
<g id="Group_12" opacity="0.83">
<path id="Vector_13" d="M29.8945 60.2781C29.8945 66.5945 24.7865 71.6839 18.4979 71.6839C12.2094 71.6839 7.10132 66.5718 7.10132 60.2781C7.10132 53.9845 12.2094 48.8723 18.4979 48.8723C24.7865 48.8723 29.8945 53.9845 29.8945 60.2781Z" fill="#FF8E5F"/>
</g>
<g id="Group_13" opacity="0.48">
<path id="Vector_14" d="M30.5983 61.346C30.0081 61.346 29.5313 60.8689 29.5313 60.2782C29.5313 54.2572 24.6276 49.3495 18.6114 49.3495C18.0212 49.3495 17.5444 48.8724 17.5444 48.2816C17.5444 47.6909 18.0212 47.2137 18.6114 47.2137C25.8081 47.2137 31.6653 53.0757 31.6653 60.2782C31.6653 60.8689 31.1886 61.346 30.5983 61.346Z" fill="white"/>
</g>
</g>
<g id="Group_14">
<g id="Group_15" style="mix-blend-mode:multiply" opacity="0.57">
<path id="Vector_15" d="M58.8855 47.2137C58.8855 47.2137 38.2944 49.1223 38.2717 62.9365C38.2717 78.2503 64.4249 72.9791 64.4249 72.9791L58.8855 47.2137Z" fill="#FF611F"/>
</g>
<path id="Vector_16" d="M73.8236 60.2782C73.8236 67.5034 67.9664 73.3426 60.7697 73.3426C53.573 73.3426 47.7158 67.4806 47.7158 60.2782C47.7158 53.0757 53.573 47.2137 60.7697 47.2137C67.9664 47.2137 73.8236 53.0757 73.8236 60.2782Z" fill="#FF611F"/>
<g id="Group_16" opacity="0.83">
<path id="Vector_17" d="M72.1665 60.2781C72.1665 66.5945 67.0585 71.6839 60.7699 71.6839C54.4813 71.6839 49.3733 66.5718 49.3733 60.2781C49.3733 53.9845 54.4813 48.8723 60.7699 48.8723C67.0585 48.8723 72.1665 53.9845 72.1665 60.2781Z" fill="#FF8E5F"/>
</g>
<g id="Group_17" opacity="0.48">
<path id="Vector_18" d="M72.8703 61.346C72.28 61.346 71.8033 60.8689 71.8033 60.2782C71.8033 54.2572 66.8996 49.3495 60.8834 49.3495C60.2932 49.3495 59.8164 48.8724 59.8164 48.2816C59.8164 47.6909 60.2932 47.2137 60.8834 47.2137C68.0801 47.2137 73.9373 53.0757 73.9373 60.2782C73.9373 60.8689 73.4606 61.346 72.8703 61.346Z" fill="white"/>
</g>
</g>
<g id="Group_18" style="mix-blend-mode:multiply" opacity="0.22">
<path id="Vector_19" d="M77.9327 79C77.3425 79 76.8657 78.5228 76.8657 77.9321V2.20386H1.28943C0.699162 2.20386 0.222412 1.72673 0.222412 1.13599C0.222412 0.545251 0.699162 0.0681152 1.28943 0.0681152H77.9327C78.523 0.0681152 78.9998 0.545251 78.9998 1.13599V77.9321C78.9998 78.5228 78.523 79 77.9327 79Z" fill="#FF611F"/>
</g>
<g id="Group_19" style="mix-blend-mode:multiply" opacity="0.22">
<path id="Vector_20" d="M1.24401 0.0681152C1.83428 0.0681152 2.31103 0.545251 2.31103 1.13599V76.8642H77.8873C78.4776 76.8642 78.9544 77.3413 78.9544 77.9321C78.9544 78.5228 78.4776 79 77.8873 79H1.24401C0.653752 79 0.177002 78.5228 0.177002 77.9321V1.13599C0.177002 0.545251 0.653752 0.0681152 1.24401 0.0681152Z" fill="#FF611F"/>
</g>
</g>
</g>
</g>
</svg>
