<svg width="168" height="168" viewBox="0 0 168 168" fill="none" xmlns="http://www.w3.org/2000/svg">
<g id="Objects">
<g id="Clip path group">
<mask id="mask0_179_471" style="mask-type:luminance" maskUnits="userSpaceOnUse" x="0" y="0" width="168" height="168">
<g id="clippath">
<path id="Vector" d="M168 0H0V168H168V0Z" fill="white"/>
</g>
</mask>
<g mask="url(#mask0_179_471)">
<g id="Group">
<g id="Group_2">
<path id="Vector_2" d="M37.8715 38.4127L32.2822 44.002L44.5002 56.2199L50.0894 50.6307L37.8715 38.4127Z" fill="#B75533"/>
<path id="Vector_3" d="M56.2212 31.6932L25.5528 62.3616C24.3348 63.5796 22.3188 63.3948 21.336 61.9836C18.5388 57.9684 16.8924 53.088 16.8924 47.8212C16.8924 34.1292 27.9888 23.0328 41.6808 23.0328C46.9476 23.0328 51.828 24.6792 55.8432 27.4764C57.2544 28.4592 57.4392 30.4752 56.2212 31.6932Z" fill="#E05536"/>
<path id="Vector_4" d="M130.138 38.4131L117.92 50.6311L123.509 56.2203L135.727 44.0024L130.138 38.4131Z" fill="#B75533"/>
<path id="Vector_5" d="M111.779 31.6932L142.447 62.3616C143.665 63.5796 145.681 63.3948 146.664 61.9836C149.461 57.9684 151.108 53.088 151.108 47.8212C151.108 34.1292 140.011 23.0328 126.319 23.0328C121.052 23.0328 116.172 24.6792 112.157 27.4764C110.746 28.4592 110.561 30.4752 111.779 31.6932Z" fill="#E05536"/>
<path id="Vector_6" d="M84 32.3484C52.9032 32.3484 27.6948 57.5568 27.6948 88.6536C27.6948 119.75 52.9032 144.959 84 144.959C115.097 144.959 140.305 119.75 140.305 88.6536C140.305 57.5568 115.097 32.3484 84 32.3484ZM84 135.064C58.3716 135.064 37.5984 114.29 37.5984 88.662C37.5984 63.0336 58.3716 42.2604 84 42.2604C109.628 42.2604 130.402 63.0336 130.402 88.662C130.402 114.29 109.628 135.064 84 135.064Z" fill="#E05536"/>
<path id="Vector_7" d="M84 136.634C110.494 136.634 131.972 115.156 131.972 88.662C131.972 62.1676 110.494 40.6896 84 40.6896C57.5056 40.6896 36.0276 62.1676 36.0276 88.662C36.0276 115.156 57.5056 136.634 84 136.634Z" fill="#B75533"/>
<path id="Vector_8" d="M84 134.064C109.075 134.064 129.402 113.737 129.402 88.662C129.402 63.5872 109.075 43.26 84 43.26C58.9252 43.26 38.598 63.5872 38.598 88.662C38.598 113.737 58.9252 134.064 84 134.064Z" fill="white"/>
<path id="Vector_9" d="M84.0084 47.1324H84C82.8031 47.1324 81.8328 48.1027 81.8328 49.2996V56.2212C81.8328 57.4181 82.8031 58.3884 84 58.3884H84.0084C85.2053 58.3884 86.1756 57.4181 86.1756 56.2212V49.2996C86.1756 48.1027 85.2053 47.1324 84.0084 47.1324Z" fill="#B75533"/>
<path id="Vector_10" d="M42.4704 88.6536V88.662C42.4704 89.8589 43.4407 90.8292 44.6376 90.8292H51.5592C52.7561 90.8292 53.7264 89.8589 53.7264 88.662V88.6536C53.7264 87.4567 52.7561 86.4864 51.5592 86.4864H44.6376C43.4407 86.4864 42.4704 87.4567 42.4704 88.6536Z" fill="#B75533"/>
<path id="Vector_11" d="M83.9916 130.192H84C85.1969 130.192 86.1672 129.221 86.1672 128.024V121.103C86.1672 119.906 85.1969 118.936 84 118.936H83.9916C82.7947 118.936 81.8244 119.906 81.8244 121.103V128.024C81.8244 129.221 82.7947 130.192 83.9916 130.192Z" fill="#B75533"/>
<path id="Vector_12" d="M125.53 88.6704V88.662C125.53 87.4651 124.559 86.4948 123.362 86.4948H116.441C115.244 86.4948 114.274 87.4651 114.274 88.662V88.6704C114.274 89.8673 115.244 90.8376 116.441 90.8376H123.362C124.559 90.8376 125.53 89.8673 125.53 88.6704Z" fill="#B75533"/>
</g>
</g>
</g>
</g>
</g>
</svg>
