<svg width="200" height="200" viewBox="0 0 200 200" fill="none" xmlns="http://www.w3.org/2000/svg">
<g id="Objects">
<g id="Clip path group">
<mask id="mask0_112_74" style="mask-type:luminance" maskUnits="userSpaceOnUse" x="0" y="0" width="200" height="200">
<g id="clippath">
<path id="Vector" d="M200 0H0V200H200V0Z" fill="white"/>
</g>
</mask>
<g mask="url(#mask0_112_74)">
<g id="Group">
<g id="Group_2">
<path id="Vector_2" d="M45.0851 45.7294L38.4312 52.3833L52.9764 66.9285L59.6303 60.2746L45.0851 45.7294Z" fill="#B75533"/>
<path id="Vector_3" d="M66.93 37.73L30.42 74.24C28.97 75.69 26.57 75.47 25.4 73.79C22.07 69.01 20.11 63.2 20.11 56.93C20.11 40.63 33.32 27.42 49.62 27.42C55.89 27.42 61.7 29.38 66.48 32.71C68.16 33.88 68.38 36.28 66.93 37.73Z" fill="#E05536"/>
<path id="Vector_4" d="M154.926 45.7298L140.381 60.275L147.035 66.9289L161.58 52.3837L154.926 45.7298Z" fill="#B75533"/>
<path id="Vector_5" d="M133.07 37.73L169.58 74.24C171.03 75.69 173.43 75.47 174.6 73.79C177.93 69.01 179.89 63.2 179.89 56.93C179.89 40.63 166.68 27.42 150.38 27.42C144.11 27.42 138.3 29.38 133.52 32.71C131.84 33.88 131.62 36.28 133.07 37.73Z" fill="#E05536"/>
<path id="Vector_6" d="M100 38.51C62.98 38.51 32.97 68.52 32.97 105.54C32.97 142.56 62.98 172.57 100 172.57C137.02 172.57 167.03 142.56 167.03 105.54C167.03 68.52 137.02 38.51 100 38.51ZM100 160.79C69.49 160.79 44.76 136.06 44.76 105.55C44.76 75.04 69.49 50.31 100 50.31C130.51 50.31 155.24 75.04 155.24 105.55C155.24 136.06 130.51 160.79 100 160.79Z" fill="#E05536"/>
<path id="Vector_7" d="M100 162.66C131.541 162.66 157.11 137.091 157.11 105.55C157.11 74.009 131.541 48.44 100 48.44C68.459 48.44 42.89 74.009 42.89 105.55C42.89 137.091 68.459 162.66 100 162.66Z" fill="#B75533"/>
<path id="Vector_8" d="M100 159.6C129.851 159.6 154.05 135.401 154.05 105.55C154.05 75.699 129.851 51.5 100 51.5C70.149 51.5 45.95 75.699 45.95 105.55C45.95 135.401 70.149 159.6 100 159.6Z" fill="white"/>
<path id="Vector_9" d="M100.01 56.11H100C98.5751 56.11 97.42 57.2651 97.42 58.69V66.93C97.42 68.3549 98.5751 69.51 100 69.51H100.01C101.435 69.51 102.59 68.3549 102.59 66.93V58.69C102.59 57.2651 101.435 56.11 100.01 56.11Z" fill="#B75533"/>
<path id="Vector_10" d="M50.56 105.54V105.55C50.56 106.975 51.7151 108.13 53.14 108.13H61.38C62.8049 108.13 63.96 106.975 63.96 105.55V105.54C63.96 104.115 62.8049 102.96 61.38 102.96H53.14C51.7151 102.96 50.56 104.115 50.56 105.54Z" fill="#B75533"/>
<path id="Vector_11" d="M99.99 154.99H100C101.425 154.99 102.58 153.835 102.58 152.41V144.17C102.58 142.745 101.425 141.59 100 141.59H99.99C98.5651 141.59 97.41 142.745 97.41 144.17V152.41C97.41 153.835 98.5651 154.99 99.99 154.99Z" fill="#B75533"/>
<path id="Vector_12" d="M149.44 105.56V105.55C149.44 104.125 148.285 102.97 146.86 102.97H138.62C137.195 102.97 136.04 104.125 136.04 105.55V105.56C136.04 106.985 137.195 108.14 138.62 108.14H146.86C148.285 108.14 149.44 106.985 149.44 105.56Z" fill="#B75533"/>
</g>
</g>
</g>
</g>
</g>
</svg>
